<?xml version="1.0" encoding="UTF-8"?>
<svg id="Layer_1" data-name="Layer 1" xmlns="http://www.w3.org/2000/svg" viewBox="0 0 238.08 196.8">
  <defs>
    <style>
      .cls-1 {
        fill: #19f2f7;
        fill-rule: evenodd;
        stroke-width: 0px;
      }
    </style>
  </defs>
  <path class="cls-1" d="M102.04,151.45v-25.14h4.97v25.14h-4.97ZM105.79,128.34c0-.7-.56-1.27-1.25-1.27s-1.27.56-1.27,1.27c0,.6.44,1.09,1,1.21v18.12c-.56.12-1,.6-1,1.21,0,.69.56,1.25,1.27,1.25s1.25-.56,1.25-1.25c0-.62-.44-1.09-1-1.21v-18.12c.56-.12,1-.62,1-1.21ZM105.29,148.89c0,.42-.35.76-.76.76s-.77-.33-.77-.76.35-.77.77-.77.76.35.76.77ZM103.76,128.34c0-.42.35-.77.77-.77s.76.35.76.77-.35.76-.76.76-.77-.33-.77-.76ZM95.01,151.52h-8.53l-.02-4.97h4.9l-4.83-13.03-6.64,17.96h-5.33l9.3-25.15h5.36l9.3,25.15h-3.52v.04ZM85.27,128.95c-.7,0-1.27.56-1.27,1.27,0,.44.25.81.58,1.04l-6.13,15.75c-.05-.02-.09-.04-.14-.04-.7,0-1.27.56-1.27,1.27s.56,1.25,1.27,1.25,1.27-.56,1.27-1.25c0-.47-.28-.86-.65-1.09l6.13-15.71c.07.02.14.05.21.05.69,0,1.27-.56,1.27-1.27s-.58-1.27-1.27-1.27ZM85.27,130.97c-.42,0-.76-.33-.76-.76s.33-.76.76-.76.76.33.76.76-.33.76-.76.76ZM78.31,148.99c-.42,0-.77-.33-.77-.76s.35-.77.77-.77.76.35.76.77-.33.76-.76.76Z"/>
  <path class="cls-1" d="M120.96,3.86v19.2c23.91.6,45.05,12.33,58.44,30.21l58.68-17.04-2.64,4.8-53.7,15.54c2.14,3.2,4.03,6.56,5.67,10.08l5.07-1.62v15.6l24.72-7.2-2.88,5.04-21.21,5.97c.85,4.52,1.29,9.19,1.29,13.95,0,40.98-32.71,74.32-73.44,75.34v8.88c45.64-1.02,82.32-38.33,82.32-84.22,0-1.37-.04-2.72-.1-4.07l1.66-.47c.08,1.5.12,3.02.12,4.54,0,46.81-37.43,84.87-84,85.9v8.64c51.34-1.02,92.64-42.95,92.64-94.54,0-2.33-.09-4.64-.25-6.93l3.77-1.06c.21,2.64.32,5.3.32,7.99,0,54.34-44.06,98.4-98.4,98.4S20.64,152.74,20.64,98.4c0-2.69.11-5.35.32-7.99l3.77,1.06c-.17,2.29-.25,4.6-.25,6.93,0,51.58,41.3,93.51,92.64,94.54v-8.64c-46.57-1.02-84-39.09-84-85.9,0-1.52.05-3.03.13-4.54l1.66.47c-.06,1.35-.11,2.7-.11,4.07,0,45.88,36.68,83.19,82.32,84.22v-8.88c-40.73-1.02-73.44-34.36-73.44-75.34,0-4.77.45-9.43,1.29-13.95l-21.21-5.97-2.88-5.04,24.72,7.2v-15.6l5.07,1.62c1.63-3.51,3.53-6.88,5.67-10.08L2.64,41.04l-2.64-4.8,58.68,17.04c13.39-17.88,34.53-29.61,58.44-30.21V3.86c-28.62.57-54.12,13.85-71.09,34.44l-4-1.16C60.06,14.51,87.86,0,119.04,0s58.98,14.51,77.01,37.14l-4,1.16C175.08,17.71,149.58,4.43,120.96,3.86ZM47.52,98.4c0,39.5,32.02,71.52,71.52,71.52s71.52-32.02,71.52-71.52S158.54,26.88,119.04,26.88,47.52,58.9,47.52,98.4ZM33.48,58.32c3.25,0,5.88,2.63,5.88,5.88s-2.63,5.88-5.88,5.88-5.88-2.63-5.88-5.88c0-.05,0-.1,0-.15l-13.93-4.29-2.88-4.8,18.08,5.58c1.08-1.35,2.73-2.22,4.6-2.22ZM210.5,64.2c0,3.25-2.63,5.88-5.88,5.88s-5.88-2.63-5.88-5.88,2.63-5.88,5.88-5.88c1.86,0,3.52.87,4.59,2.22l18.07-5.58-2.88,4.8-13.91,4.28c0,.05,0,.11,0,.16Z"/>
  <path class="cls-1" d="M162.96,91.79c-.7,0-1.76-.02-2.16-.04-.26-.26-.52-.52-.78-.77-.35-.43-.72-.89-.75-.91.33-7.05-1.37-15.3-7.13-25.09,7.11,8.51,10.5,18.98,10.81,26.81ZM82.08,117.6c-21.23-33.73,2.9-68.54,36.96-67.68,1.62,0,3.18.08,4.7.22,2.68,5.83,5.9,11.53,8.73,16.17l-8.43-7.76c-.08-.08-.15-.14-.21-.18-.08-.06-.16-.12-.25-.17l-.04-.02c-.06-.03-.13-.07-.24-.12-.06-.02-.1-.04-.15-.06-.05-.02-.09-.03-.13-.05l-12.69-4.14-.08-.03h-.02s-.08-.03-.08-.03h-.07s-.25-.08-.25-.08h-.02s-.16,0-.16,0h-.02s-.02,0-.02,0c-.05,0-.08,0-.1,0-.07,0-.15,0-.25.01-.07,0-.16.02-.27.04-.1.02-.2.05-.29.08h-.03s-10.52,3.93-10.52,3.93h0l-.11.04s-.11.04-.18.08c-.1.04-.17.09-.23.13-.06.03-.14.09-.23.16h-.01s-.05.05-.09.08c-.09.07-.17.16-.24.24l-4.29,4.76c-.4.38-.66.88-.74,1.43l-2.01,7.38-.1.29-.09.45s0,.05,0,.07l-.03.16v.15c0,.06.01.12.02.16v.12s.02.13.02.13v.04s.01.01.01.01l.04.11s.02.08.03.12l.02.05c.03.09.06.18.1.26l.07.14.04.06.1.18.07.07c.14.19.31.35.5.49l6.19,4.79-2.12,5.96c-.22.62-.18,1.29.1,1.88.28.59.78,1.04,1.4,1.26.26.09.54.14.83.14h3.1c-1.03,11.24,6.01,25.72,10.09,27.99,15.35,8.18,23.98,10.79,38.16,32.64-16.37-12.61-41.84-29.03-57.12-28.8-4.93-.02-7.98-1.72-9.36-3.36Z"/>
  <path class="cls-1" d="M130.64,66.82c-.34,0-.65.09-.93.24l-6.2-5.71c.15-.27.23-.58.23-.91,0-1.06-.86-1.92-1.92-1.92-.68,0-1.28.36-1.62.89l-8.91-2.91c-.05-1.02-.89-1.82-1.92-1.82s-1.91.85-1.92,1.9l-6.8,2.53c-.35-.5-.93-.82-1.58-.82-1.06,0-1.92.86-1.92,1.92,0,.39.12.76.32,1.06l-2.08,2.31h0c-.1-.02-.19-.02-.29-.02-1.06,0-1.92.86-1.92,1.92,0,.54.22,1.03.58,1.38l-1.09,3.99c-.99.08-1.77.9-1.77,1.92,0,1.06.86,1.92,1.92,1.92.35,0,.69-.1.97-.26l4.31,3.33c-.1.23-.16.49-.16.76,0,.74.42,1.38,1.02,1.7l-1.47,4.15c-.15-.04-.31-.06-.47-.06-1.06,0-1.92.86-1.92,1.92s.86,1.92,1.92,1.92,1.92-.86,1.92-1.92c0-.55-.23-1.04-.6-1.39l1.56-4.4c1.04-.02,1.88-.87,1.88-1.92,0-.32-.08-.63-.22-.9l1.81-2.14,1.06,2.66c-.42.35-.69.88-.69,1.47,0,.42.13.81.36,1.12l-2.59,3.49c-.17-.05-.34-.07-.53-.07-1.06,0-1.92.86-1.92,1.92s.86,1.92,1.92,1.92,1.92-.86,1.92-1.92c0-.53-.21-1.01-.56-1.36l2.49-3.37c.25.12.53.18.82.18.98,0,1.79-.74,1.91-1.69l2.28-.29h0c.34.54.94.89,1.62.89.76,0,1.41-.44,1.72-1.07h5.03c.14.92.94,1.62,1.9,1.62,1.06,0,1.92-.86,1.92-1.92,0-.12,0-.23-.03-.34l4.62-1.45c.35.48.92.79,1.55.79,1.06,0,1.92-.86,1.92-1.92,0-.61-.29-1.16-.74-1.51l1.41-3.96c.99-.07,1.78-.9,1.78-1.92s-.86-1.92-1.92-1.92ZM98,86.22c0,.53-.43.96-.96.96s-.96-.43-.96-.96.43-.97.96-.97c.05,0,.1,0,.15.01.37.06.67.33.78.68h0c.02.09.04.18.04.27ZM101.97,86.07c0,.53-.43.96-.96.96s-.96-.43-.96-.96c0-.48.36-.89.83-.95.04,0,.09-.01.14-.01.32,0,.6.16.77.39.12.16.19.36.19.57ZM111.58,76.59l-.85-9.96,4.63,1.57s0,.1,0,.14c0,.54.22,1.03.59,1.38l-3.94,6.93c-.14-.04-.28-.06-.42-.07ZM106.69,71.63l-.03-.05-.04.05c-.35-.02-.65-.24-.79-.54-.06-.13-.1-.27-.1-.42,0-.2.06-.39.17-.54.17-.25.47-.42.8-.42.02,0,.04,0,.07,0,.5.03.9.45.9.96,0,.18-.05.35-.14.49-.17.28-.48.48-.83.48h0ZM101.53,70.84c-.14-.01-.27-.06-.39-.13-.29-.17-.48-.48-.48-.83,0,0,0-.02,0-.02h0s0,0,0,0c0-.35.21-.66.5-.82l.31-.11s.1-.01.15-.01c.3,0,.57.14.75.36t0,0c.13.16.21.37.21.6,0,.21-.07.41-.18.57-.17.24-.46.4-.78.4-.03,0-.07,0-.1,0ZM96.47,66.83l3.34,2.41c-.07.2-.11.42-.11.64,0,.09,0,.18.02.27l-2.19.69-1.44-3.71c.14-.08.27-.18.38-.3ZM102.61,68.23l.61-2.75c.12,0,.23-.01.34-.03l1.88,3.76c-.41.35-.67.87-.67,1.46,0,.45.15.86.41,1.19l-1.51,1.79-.89-2.23c.46-.35.76-.91.76-1.53,0-.7-.38-1.31-.94-1.65ZM102.25,63.43c.04-.34.27-.63.58-.76.11-.05.24-.08.37-.08.05,0,.1,0,.14.01.34.05.63.28.75.6.03.06.05.12.06.19,0,.05.02.11.02.16,0,.21-.07.41-.19.57-.04.06-.09.11-.15.16-.11.1-.24.16-.39.2-.07.02-.15.03-.23.03-.04,0-.07,0-.11,0-.23-.02-.43-.13-.58-.28-.17-.17-.27-.41-.27-.67,0-.04,0-.08,0-.12ZM108.39,58.24c.21.12.44.21.69.25l.58,6.76-4.54-1.54c0-.05,0-.11,0-.16,0-.42-.13-.81-.36-1.12l3.63-4.19ZM115.86,67.06c-.07.07-.13.15-.18.24l-5.03-1.7-.61-7.19s.06-.02.09-.03l5.74,8.69ZM118.11,67.86s.01.02.02.03c.07.13.11.29.11.45,0,.39-.23.72-.56.88-.12.06-.25.09-.4.09h0c-.35,0-.66-.19-.83-.47-.06-.09-.1-.2-.12-.3-.01-.06-.02-.12-.02-.19,0-.16.04-.3.1-.43.05-.11.13-.21.22-.29.16-.14.35-.23.57-.24.02,0,.04,0,.06,0h0c.35,0,.66.19.83.48ZM106.7,68.74c-.14,0-.27.01-.4.04l-1.87-3.75c.14-.12.27-.26.38-.42l4.94,1.67.89,10.41-2.6-4.66c.37-.35.59-.84.59-1.39,0-1.06-.86-1.92-1.92-1.92ZM112.83,77.14l3.95-6.94c.16.04.33.07.5.07.47,0,.9-.17,1.23-.45l3.93,2.82-9.36,4.8c-.07-.11-.15-.2-.24-.29ZM119.07,69.04s.04-.1.05-.15l9.66.34s.02.09.04.14l-5.43,2.78-4.33-3.1ZM129.02,67.72c-.11.17-.19.35-.24.55l-9.62-.34c-.08-.37-.27-.7-.53-.96l2.7-4.68c.16.05.33.07.51.07.38,0,.74-.11,1.04-.31l6.15,5.66ZM121.83,59.47c.53,0,.96.43.96.96,0,.07,0,.15-.03.22-.08.34-.33.6-.65.7-.09.03-.19.04-.28.04h0c-.35,0-.66-.19-.83-.48-.05-.09-.09-.18-.11-.29-.01-.07-.02-.13-.02-.2,0-.28.12-.54.32-.71.17-.16.4-.25.65-.25ZM120.49,61.81l-2.7,4.68c-.16-.05-.34-.07-.51-.07-.22,0-.43.04-.63.11l-5.77-8.74c.08-.11.16-.22.22-.34l8.81,2.88s0,.08,0,.12c0,.54.22,1.03.58,1.38ZM109.38,55.63c.37,0,.69.21.85.52.07.13.11.28.11.45,0,.1-.02.2-.05.3-.03.09-.07.17-.12.25-.06.09-.14.17-.23.24-.11.08-.23.14-.37.17-.06.01-.13.02-.2.02-.31,0-.6-.15-.77-.39-.09-.12-.16-.27-.18-.43,0-.05-.01-.1-.01-.15,0-.15.03-.28.09-.41.15-.33.48-.56.87-.56ZM107.69,57.51s.02.03.03.05l-3.69,4.26c-.25-.12-.53-.18-.82-.18-.43,0-.84.14-1.16.39l-1.22-1.01c.12-.25.18-.52.18-.81,0-.07,0-.13,0-.2l6.7-2.49ZM98.12,60.2c0-.53.43-.96.96-.96.24,0,.45.08.61.22.21.18.35.44.35.74,0,.05,0,.11-.01.16h0,0c-.06.34-.29.62-.61.74-.11.04-.22.06-.34.06-.07,0-.14,0-.2-.02-.34-.07-.61-.32-.71-.64-.03-.09-.05-.2-.05-.3ZM98.19,61.91c.27.14.57.22.89.22.42,0,.82-.14,1.13-.37l1.23,1.02c-.11.24-.17.5-.17.78,0,.73.41,1.36,1.01,1.69l-.6,2.71s-.04,0-.06,0c-.49,0-.94.18-1.28.49l-3.39-2.44c.05-.17.07-.34.07-.52,0-.6-.28-1.14-.71-1.49l1.87-2.08ZM94.14,65.48c0-.17.05-.34.13-.48h0s0,0,0,0c.13-.22.34-.38.59-.44h0c.07-.02.15-.03.23-.03.21,0,.41.07.57.19.21.15.35.38.38.65h0s0,.08,0,.12c0,.53-.43.97-.96.97-.08,0-.15,0-.22-.03-.04,0-.07-.02-.11-.03h0c-.36-.13-.62-.48-.63-.9h0ZM94.63,67.34c.15.04.31.06.48.06.02,0,.04,0,.06,0l1.45,3.73-2.12.67c-.2-.34-.5-.62-.87-.79l1-3.67ZM92.83,73.72c-.53,0-.96-.43-.96-.96,0-.37.21-.7.52-.86.13-.07.28-.11.44-.11.2,0,.39.06.54.16.06.04.12.09.16.14h0c.16.17.26.4.26.66,0,.1-.01.19-.04.28,0,.03-.02.07-.04.1-.14.32-.45.56-.81.58-.02,0-.05,0-.07,0ZM94.49,73.74c.17-.29.27-.62.27-.98v-.04l2.21-.7,1.88,4.86c-.05.03-.11.07-.15.11l-4.21-3.26ZM100.84,78.51c0,.38-.22.71-.55.87-.12.06-.27.1-.41.1-.21,0-.41-.07-.57-.19-.24-.18-.39-.46-.39-.78,0-.04,0-.09.01-.13.03-.22.13-.42.29-.56.08-.08.18-.15.29-.2.11-.05.24-.07.37-.07.09,0,.18.01.27.04.05.01.1.03.15.06.31.15.53.47.54.84,0,0,0,.02,0,.02ZM100.92,76.9c-.3-.2-.66-.31-1.05-.31-.04,0-.07,0-.11,0l-1.88-4.85,2.21-.7c.35.46.91.76,1.53.76.1,0,.19,0,.28-.02l1.07,2.69-2.06,2.43ZM105.68,80.56c-.08,0-.15,0-.23-.03-.34-.08-.6-.34-.7-.67h0c-.02-.09-.04-.18-.04-.27,0-.17.05-.34.13-.48.17-.29.48-.48.84-.48h0c.31,0,.58.15.75.37.13.16.21.37.21.59,0,.12-.02.25-.07.35-.14.36-.49.61-.89.61ZM107.46,78.88h0c-.28-.7-.97-1.2-1.78-1.2-.13,0-.25.01-.37.03l-1.23-3.07,1.86-2.21c.23.1.48.15.75.15.17,0,.34-.02.49-.07l2.73,4.88h0c-.22.32-.35.7-.35,1.11,0,.03,0,.07,0,.1l-2.11.26ZM111.49,79.48c-.14,0-.27-.03-.39-.09-.34-.15-.57-.49-.57-.88,0,0,0-.01,0-.02h0,0c0-.23.08-.42.21-.58.1-.13.24-.24.4-.3.11-.05.23-.07.35-.07,0,0,.01,0,.02,0,.06,0,.11,0,.16.02.22.04.41.15.54.31.04.05.08.1.12.16.06.11.1.23.12.36,0,.04,0,.07,0,.11,0,.12-.02.24-.07.35-.08.21-.24.39-.44.5-.14.07-.29.11-.45.11ZM121.1,79.06c0,.53-.43.96-.97.96-.43,0-.79-.28-.92-.66-.03-.09-.05-.2-.05-.3,0-.26.1-.49.26-.66.17-.19.42-.3.7-.3.14,0,.28.03.4.09.32.14.55.46.57.83,0,.02,0,.03,0,.05ZM121.62,77.84c-.35-.43-.89-.7-1.49-.7-.83,0-1.54.53-1.8,1.26h-4.93s0-.04,0-.06l9.92-5.08,3.08,2.21c-.08.21-.12.43-.12.66,0,.08,0,.16.02.24l-4.67,1.47ZM129.16,76.13c0,.53-.43.96-.96.96-.19,0-.37-.06-.52-.15h0c-.27-.17-.44-.47-.44-.81,0-.02,0-.04,0-.06h0c.02-.35.23-.65.52-.8.12-.06.26-.1.4-.1,0,0,.02,0,.03,0,.35,0,.65.19.82.46.09.15.14.32.14.5ZM128.5,74.24c-.1-.02-.2-.02-.3-.02-.48,0-.92.18-1.26.47l-2.67-1.91,5.08-2.6c.14.13.3.23.48.31l-1.33,3.75ZM131.19,69.54c-.16.11-.34.17-.54.17-.1,0-.2-.02-.29-.05-.07-.02-.13-.05-.2-.09-.29-.17-.48-.48-.48-.83,0-.12.02-.25.07-.35.01-.03.02-.06.04-.08.14-.28.41-.48.73-.52.04,0,.09,0,.13,0,.53,0,.96.43.96.96,0,.33-.17.62-.42.79Z"/>
  <path class="cls-1" d="M166.08,127.2c-2.54-2.21-3.51-3.82-7.04-7.92-3.53-4.1-6.78-9.12-6.4-11.52-2.54,1.13-4.47,4.7-15.12,4.32s-20.15-6.19-19.68-18.48,9.89-18.91,25.92-13.2c-.08-.18-23.15-36.4-25.92-51.6,33.99,27.5,39.8,48.4,39.12,62.88.06.04,2.08,2.88,2.08,2.88,0,0,2.73.09,2.96,0,3.38,3.34,7.84,12.92-1.44,15.84,4.1-4.85.48-6.96.48-6.96,0,0-.49,3.12-4.08,1.68-3.21,4.68,3.82,13.19,3.84,13.2,2.49,3.27,4.34,5.11,6.96,8.4,3.15,3.72,3.36,18,3.36,18,0,0-2.5-15.31-5.04-17.52ZM160.56,101.76c3.8,2.06,2.64,6.48,2.64,6.48,0,0,4.39-4.48-.48-11.04-1.79-.23-3.26,2.31-2.16,4.56ZM149.1,86.76s-1.56,6.44-.3,6.84,2.88-4.32,2.88-4.32c0,0-1.25-1.69-2.58-2.52ZM153.36,91.44l-1.12-1.39s-1.21,4.69-3.68,4.51-.24-8.4-.24-8.4c0,0-2.49-2.01-5.52-2.88-3.13,9.68.37,12.34,5.52,12.72s5.04-4.56,5.04-4.56ZM157.68,96.96l-.72-.96h-3.36s-6.09,2.7-10.8-.24-2.38-11.6-.72-13.2c-17.11-6.84-21.89,6.01-21.84,12s3.27,15.69,19.2,15.36c14.3-.3,18.24-12.96,18.24-12.96Z"/>
  <path class="cls-1" d="M132.48,82.56c-9.39,6.98-6.54,14.74,1.2,19.44s16.92.17,20.16-2.88c-6.86,2.6-12.66,5.39-19.2,1.2s-6.03-11.92-2.16-17.76Z"/>
</svg>