<?xml version="1.0" encoding="UTF-8"?>
<svg xmlns="http://www.w3.org/2000/svg" viewBox="0 0 1033 1034.43">
  <defs>
    <style>
      .cls-1, .cls-2, .cls-3 {
        fill-rule: evenodd;
        stroke-width: 0px;
      }

      .cls-1, .cls-3 {
        fill: #231f20;
      }

      .cls-2 {
        fill: none;
      }

      .cls-3 {
        opacity: .5;
      }
    </style>
  </defs>
  <g id="Layer_1" data-name="Layer 1">
    <path class="cls-2" d="M0,1034v-87c0-118.09,190.02-94.95,126-199-76.6-124.5,41.24-214.58,91-253,182.16-140.66,481.08-66.38,472-132C684.44,330.03,115.27,293.63,173,0h189c-5.44,93.86,131.48,151.67,173,161,153.67,34.52,281.83,88.97,281,184-1.36,156.7-179.71,192.1-313,217-322.93,60.32-192.34,130.75-207,261-14.71,130.65-222.14,89.13-106,211-60.49,0-142.54.97-190,0Z"/>
    <path class="cls-3" d="M780,817c-89.87-28.36-59.05-115.68-156-164-98.54-49.11-252.99-.06-265,48-13.7,54.82,126.93,64.6,122,150-5.71,98.93-279.96,77.38-167,183h-124c-116.14-121.87,91.29-80.35,106-211,14.66-130.25-115.93-200.68,207-261,133.29-24.9,311.64-60.3,313-217,.83-95.03-127.33-149.48-281-184-41.52-9.33-178.44-67.14-173-161h222c-58.91,142.3,350.66,97.24,343,345-4.55,147.2-154.55,151.45-122,257,25.66,83.21,137.43,130.99,228,87v114c-151.31-90.28-156.24,44.53-253,14ZM689,363c9.08,65.62-289.84-8.66-472,132-49.76,38.42-167.6,128.5-91,253C190.02,852.05,0,828.91,0,947v-119c170.57-89.56-228.74-378.18,386-483.33C20.96,228,55.03,58.16,81,0h92c-57.73,293.63,511.44,330.03,516,363Z"/>
    <path class="cls-2" d="M0,0h81c-25.97,58.16-60.04,228,305,344.67C-228.74,449.82,170.57,738.44,0,828V0Z"/>
    <path class="cls-2" d="M584,0c-58.91,142.3,350.66,97.24,343,345-4.55,147.2-154.55,151.45-122,257,25.66,83.21,137.43,130.99,228,87V0h-449Z"/>
    <path class="cls-2" d="M314,1034c-112.96-105.62,161.29-84.07,167-183,4.93-85.4-135.7-95.18-122-150,12.01-48.06,166.46-97.11,265-48,96.95,48.32,66.13,135.64,156,164,96.76,30.53,101.69-104.28,253-14v231H314Z"/>
  </g>
  <g id="Layer_1_copy" data-name="Layer 1 copy">
    <path class="cls-2" d="M0,1034v-87c0-118.09,190.02-94.95,126-199-76.6-124.5,41.24-214.58,91-253,182.16-140.66,481.08-66.38,472-132C684.44,330.03,115.27,293.63,173,0h189c-5.44,93.86,131.48,151.67,173,161,153.67,34.52,281.83,88.97,281,184-1.36,156.7-179.71,192.1-313,217-322.93,60.32-192.34,130.75-207,261-14.71,130.65-222.14,89.13-106,211-60.49,0-142.54.97-190,0Z"/>
    <path class="cls-2" d="M780,817c-89.87-28.36-59.05-115.68-156-164-98.54-49.11-252.99-.06-265,48-13.7,54.82,126.93,64.6,122,150-5.71,98.93-279.96,77.38-167,183h-124c-116.14-121.87,91.29-80.35,106-211,14.66-130.25-115.93-200.68,207-261,133.29-24.9,311.64-60.3,313-217,.83-95.03-127.33-149.48-281-184-41.52-9.33-178.44-67.14-173-161h222c-58.91,142.3,350.66,97.24,343,345-4.55,147.2-154.55,151.45-122,257,25.66,83.21,137.43,130.99,228,87v114c-151.31-90.28-156.24,44.53-253,14ZM689,363c9.08,65.62-289.84-8.66-472,132-49.76,38.42-167.6,128.5-91,253C190.02,852.05,0,828.91,0,947v-119c170.57-89.56-228.74-378.18,386-483.33C20.96,228,55.03,58.16,81,0h92c-57.73,293.63,511.44,330.03,516,363Z"/>
    <path class="cls-1" d="M0,0h81c-25.97,58.16-60.04,228,305,344.67C-228.74,449.82,170.57,738.44,0,828V0Z"/>
    <path class="cls-1" d="M584,0c-58.91,142.3,350.66,97.24,343,345-4.55,147.2-154.55,151.45-122,257,25.66,83.21,137.43,130.99,228,87V0h-449Z"/>
    <path class="cls-1" d="M314,1034c-112.96-105.62,161.29-84.07,167-183,4.93-85.4-135.7-95.18-122-150,12.01-48.06,166.46-97.11,265-48,96.95,48.32,66.13,135.64,156,164,96.76,30.53,101.69-104.28,253-14v231H314Z"/>
  </g>
</svg>